<?xml version="1.0" standalone="no"?>
<!DOCTYPE svg PUBLIC "-//W3C//DTD SVG 20010904//EN"
 "http://www.w3.org/TR/2001/REC-SVG-20010904/DTD/svg10.dtd">
<svg version="1.0" xmlns="http://www.w3.org/2000/svg"
 width="500.000000pt" height="500.000000pt" viewBox="0 0 500.000000 500.000000"
 preserveAspectRatio="xMidYMid meet">

<g transform="translate(0.000000,500.000000) scale(0.100000,-0.100000)"
fill="#000000" stroke="none">
<path d="M1501 4425 c-377 -107 -507 -147 -515 -161 -60 -100 -505 -931 -503
-939 2 -5 19 -10 38 -11 29 0 41 -9 91 -70 39 -46 58 -78 58 -96 0 -15 6 -31
14 -35 7 -4 21 -24 31 -43 23 -45 77 -121 82 -116 3 2 -3 19 -12 38 l-17 33
30 -29 c19 -17 37 -26 46 -23 30 12 16 48 -41 107 -32 33 -63 67 -69 77 -6 10
-20 20 -32 23 -18 5 -122 123 -122 140 0 3 53 21 117 39 169 47 175 53 128
109 -14 17 -25 40 -25 53 0 37 81 226 136 318 57 96 167 219 257 286 135 102
303 163 473 172 l102 6 43 -47 c25 -26 49 -43 55 -38 18 12 175 315 172 331
-2 9 -10 17 -18 17 -8 1 -242 -62 -519 -141z"/>
<path d="M1615 4229 c-294 -42 -534 -229 -686 -534 -92 -186 -97 -162 72 -364
78 -94 145 -171 149 -171 4 0 29 37 55 83 109 189 281 379 433 481 95 63 241
131 327 152 39 9 72 18 73 20 2 1 -60 79 -139 173 l-142 171 -41 -1 c-23 -1
-68 -5 -101 -10z"/>
<path d="M2360 3800 c-273 -24 -570 -164 -773 -363 -284 -279 -413 -629 -386
-1047 33 -516 407 -981 912 -1135 149 -45 256 -58 432 -52 202 6 340 39 511
121 151 73 248 141 364 256 249 249 380 564 380 918 0 276 -66 498 -216 730
-66 101 -202 244 -307 323 -145 107 -347 197 -527 232 -95 19 -280 27 -390 17z
m350 -45 c431 -70 820 -388 974 -798 179 -475 68 -995 -289 -1352 -210 -210
-478 -336 -776 -366 -588 -59 -1138 301 -1328 869 -148 443 -29 948 303 1285
196 199 449 326 736 370 67 11 294 5 380 -8z"/>
<path d="M2333 3643 c-35 -3 -43 -8 -43 -24 0 -15 7 -19 33 -19 l34 0 9 -82
c7 -63 13 -83 24 -83 12 0 14 15 12 86 l-3 86 30 6 c18 4 31 13 31 22 0 15
-25 17 -127 8z"/>
<path d="M2510 3646 c0 -2 14 -33 30 -70 23 -50 29 -75 24 -100 -4 -26 -2 -35
12 -40 22 -8 24 -6 31 40 3 22 23 64 44 94 45 64 46 70 19 70 -12 0 -30 -16
-46 -40 -15 -22 -30 -38 -33 -35 -4 2 -16 22 -26 45 -12 26 -25 40 -37 40 -10
0 -18 -2 -18 -4z"/>
<path d="M2203 3612 c-10 -6 -9 -23 6 -78 10 -38 21 -81 25 -96 4 -19 13 -28
26 -28 25 0 25 8 0 100 -34 124 -31 118 -57 102z"/>
<path d="M2019 3541 c-32 -33 -36 -48 -15 -77 12 -15 27 -19 78 -19 51 0 63
-3 66 -17 5 -27 -41 -45 -73 -28 -20 11 -28 11 -37 2 -19 -19 15 -46 57 -46
41 0 89 32 93 63 2 12 -4 34 -13 48 -16 24 -20 25 -75 19 -62 -7 -82 3 -59 30
10 12 23 14 56 9 47 -7 58 7 26 31 -30 23 -72 17 -104 -15z"/>
<path d="M2841 3488 c-62 -69 -70 -83 -56 -90 12 -7 22 -5 35 7 16 15 23 15
54 4 30 -11 36 -18 36 -41 0 -21 5 -28 19 -28 18 0 20 9 23 103 5 156 -8 161
-111 45z m74 -17 c-7 -32 -12 -35 -40 -25 -14 6 -12 11 11 35 32 34 38 32 29
-10z"/>
<path d="M3023 3405 c-45 -68 -54 -88 -44 -98 10 -9 18 -5 39 21 20 24 32 31
45 26 18 -6 18 -25 1 -86 -3 -10 3 -21 15 -27 17 -10 20 -7 26 22 12 59 16 67
35 67 27 0 54 44 46 75 -5 20 -81 85 -100 85 -3 0 -31 -38 -63 -85z m107 10
c19 -20 21 -27 10 -40 -16 -19 -23 -19 -50 3 -19 16 -21 22 -11 40 15 28 22
28 51 -3z"/>
<path d="M1830 3440 c-25 -17 -44 -35 -42 -41 4 -15 100 -156 111 -163 5 -3
14 1 21 9 9 11 7 20 -12 45 -22 31 -22 32 -4 45 16 12 23 11 58 -12 34 -23 41
-24 53 -12 13 13 10 18 -23 38 -30 18 -39 30 -39 52 0 35 -28 69 -57 69 -12 0
-41 -14 -66 -30z m80 -25 c10 -12 7 -19 -16 -40 -25 -23 -28 -24 -40 -7 -18
23 -17 32 4 48 22 17 37 17 52 -1z"/>
<path d="M1671 3301 c-23 -27 -41 -51 -41 -54 0 -3 34 -36 75 -73 l76 -67 25
24 c46 42 68 79 55 92 -8 8 -21 1 -49 -26 -36 -35 -39 -36 -55 -20 -16 16 -15
19 15 50 25 26 29 36 20 45 -9 9 -19 5 -45 -20 -30 -30 -34 -31 -49 -15 -16
15 -14 19 18 58 18 23 31 45 27 48 -15 15 -33 4 -72 -42z"/>
<path d="M3195 3288 c-24 -22 -38 -45 -42 -70 -5 -33 -2 -41 30 -73 35 -35 88
-48 102 -25 8 13 -14 42 -26 34 -15 -9 -48 6 -60 28 -25 46 43 118 94 99 25
-10 37 -29 37 -61 0 -9 7 -23 15 -30 12 -10 15 -7 21 14 8 34 -11 81 -42 101
-40 26 -90 19 -129 -17z"/>
<path d="M1566 3184 c-4 -10 12 -38 44 -77 27 -33 48 -62 47 -64 -2 -1 -38 7
-81 18 -64 16 -81 18 -87 7 -5 -7 -9 -16 -9 -19 0 -6 178 -49 203 -49 8 0 19
6 25 13 9 10 -4 34 -55 100 -36 48 -69 87 -73 87 -4 0 -11 -7 -14 -16z"/>
<path d="M3347 3110 c-43 -26 -78 -51 -78 -54 -1 -27 10 -30 45 -13 42 20 50
17 71 -23 14 -28 14 -29 -20 -50 -37 -23 -44 -37 -22 -46 21 -8 187 95 180
112 -7 19 -22 18 -57 -6 l-30 -19 -23 35 c-27 39 -25 46 17 64 19 8 30 19 28
29 -5 27 -31 21 -111 -29z"/>
<path d="M1443 2975 c-7 -20 -14 -15 91 -64 86 -40 106 -43 106 -17 0 10 -166
96 -186 96 -2 0 -7 -7 -11 -15z"/>
<path d="M1951 2948 c-13 -7 -34 -26 -45 -41 -21 -28 -21 -37 -21 -479 l0
-450 28 -24 29 -24 554 2 c538 3 554 4 573 23 14 14 45 120 105 360 47 188 86
346 86 353 0 8 -24 12 -80 12 l-80 0 0 36 c0 77 9 74 -271 74 -191 0 -251 3
-254 13 -2 6 -6 29 -10 50 -3 21 -19 52 -35 70 l-28 32 -264 3 c-196 2 -269
-1 -287 -10z m550 -47 c22 -23 29 -39 29 -69 0 -70 4 -71 281 -74 l244 -3 3
-37 3 -38 -503 -2 -503 -3 -65 -250 -65 -250 -3 344 c-2 372 -1 380 51 401 12
5 129 9 260 9 l239 1 29 -29z m719 -256 c0 -22 -164 -652 -172 -662 -8 -10
-126 -13 -558 -13 -494 0 -549 2 -561 16 -14 17 4 98 124 552 l30 112 568 0
c313 0 569 -2 569 -5z"/>
<path d="M2043 2833 c42 -2 112 -2 155 0 42 1 7 3 -78 3 -85 0 -120 -2 -77 -3z"/>
<path d="M2313 2833 c9 -2 25 -2 35 0 9 3 1 5 -18 5 -19 0 -27 -2 -17 -5z"/>
<path d="M2570 2595 c0 -13 8 -16 38 -13 20 2 37 8 37 13 0 6 -17 11 -37 13
-30 3 -38 0 -38 -13z"/>
<path d="M2502 2548 c3 -7 21 -14 41 -16 28 -2 37 1 37 12 0 12 -11 16 -41 16
-28 0 -39 -4 -37 -12z"/>
<path d="M2570 2494 c0 -11 9 -14 37 -12 52 4 56 28 4 28 -30 0 -41 -4 -41
-16z"/>
<path d="M2502 2448 c3 -7 21 -14 41 -16 28 -2 37 1 37 12 0 12 -11 16 -41 16
-28 0 -39 -4 -37 -12z"/>
<path d="M2570 2394 c0 -11 9 -14 37 -12 52 4 56 28 4 28 -30 0 -41 -4 -41
-16z"/>
<path d="M2503 2348 c2 -7 19 -13 37 -13 18 0 35 6 38 13 2 8 -9 12 -38 12
-29 0 -40 -4 -37 -12z"/>
<path d="M2534 2292 c-6 -4 -17 -42 -24 -85 -12 -74 -12 -80 7 -105 32 -43 89
-42 119 3 14 21 14 33 3 97 -7 40 -17 79 -22 86 -10 13 -65 16 -83 4z m81 -27
c0 -12 -50 -19 -71 -11 -9 3 -12 11 -9 16 8 14 80 9 80 -5z m10 -90 c8 -61 -1
-80 -40 -87 -53 -11 -75 30 -59 111 6 29 9 31 50 31 l43 0 6 -55z"/>
<path d="M2540 2161 c-23 -45 30 -81 62 -41 13 17 15 26 8 41 -14 25 -56 25
-70 0z m49 0 c17 -11 7 -41 -13 -41 -19 0 -29 17 -22 35 6 17 15 18 35 6z"/>
<path d="M3470 2913 c-95 -39 -105 -45 -97 -66 5 -13 22 -8 99 23 83 34 115
60 91 73 -4 2 -46 -11 -93 -30z"/>
<path d="M1400 2862 c0 -14 13 -22 53 -31 83 -21 83 -26 -1 -44 -66 -15 -81
-21 -86 -39 -3 -12 -4 -24 -2 -25 5 -5 179 -53 194 -53 6 0 12 9 12 19 0 15
-14 23 -67 37 l-67 18 77 19 c54 14 81 25 88 39 6 11 9 22 6 24 -6 6 -178 54
-194 54 -7 0 -13 -8 -13 -18z"/>
<path d="M3500 2794 c-47 -30 -85 -60 -84 -65 1 -5 2 -15 3 -23 1 -9 23 -16
74 -20 39 -4 89 -10 110 -13 30 -4 37 -2 37 11 0 22 -40 36 -100 36 -27 0 -51
4 -54 8 -3 5 24 28 60 51 59 37 75 59 48 68 -5 1 -47 -22 -94 -53z"/>
<path d="M1350 2623 c0 -18 9 -21 76 -26 42 -4 80 -9 85 -13 13 -8 11 -62 -3
-70 -7 -5 -47 -7 -90 -5 -72 2 -78 1 -78 -17 0 -18 8 -21 73 -24 87 -4 121 5
136 38 17 38 13 70 -11 99 -20 22 -33 26 -105 32 -78 6 -83 5 -83 -14z"/>
<path d="M3488 2603 l-48 -4 0 -70 c0 -62 2 -69 20 -69 17 0 20 7 20 50 0 46
2 50 24 50 22 0 25 -5 28 -42 2 -30 8 -43 18 -43 11 0 16 13 18 48 3 38 7 47
21 47 20 0 31 -26 31 -72 0 -18 5 -28 15 -28 12 0 15 14 15 70 l0 70 -57 -2
c-32 -1 -79 -3 -105 -5z"/>
<path d="M3518 2457 c-5 -10 -8 -41 -8 -68 l0 -49 -34 0 c-18 0 -48 -3 -66 -6
-46 -10 -18 -24 48 -24 l52 0 0 -59 c0 -82 17 -86 25 -6 l7 65 47 0 c60 0 85
15 41 24 -18 3 -45 6 -60 6 -26 0 -27 3 -36 68 -6 45 -11 61 -16 49z"/>
<path d="M1467 2430 c-4 -14 -7 -44 -7 -67 0 -43 0 -43 -37 -43 -21 0 -49 -3
-61 -7 -36 -9 -6 -23 51 -23 l47 0 1 -47 c0 -27 4 -57 8 -68 7 -16 9 -14 14
14 4 19 7 49 7 67 0 34 0 34 48 35 26 0 56 4 67 8 16 7 14 9 -14 14 -19 4 -49
7 -67 7 -33 0 -34 1 -35 43 -1 23 -4 53 -8 67 l-7 25 -7 -25z"/>
<path d="M1642 1839 l-44 -41 28 -29 c15 -16 32 -29 37 -29 12 0 77 66 77 78
0 12 -39 62 -48 62 -4 0 -26 -19 -50 -41z m68 -4 c9 -10 10 -19 4 -25 -13 -13
-49 13 -40 28 10 16 21 15 36 -3z m-30 -56 c0 -17 -23 -20 -38 -6 -13 14 -13
18 -2 32 13 16 15 15 27 -1 7 -10 13 -21 13 -25z"/>
<path d="M3277 1852 c-21 -23 -22 -46 -2 -62 11 -9 20 -8 44 6 25 15 33 16 43
5 11 -10 9 -15 -5 -26 -11 -7 -25 -11 -33 -8 -8 3 -14 1 -14 -5 0 -21 31 -20
57 3 23 20 26 27 17 42 -12 18 -40 21 -81 8 -32 -10 -30 13 3 25 14 6 22 14
19 20 -10 15 -30 12 -48 -8z"/>
<path d="M1740 1754 c-39 -45 -38 -84 3 -98 24 -9 31 -6 67 29 21 21 37 42 33
48 -3 5 -22 -8 -43 -28 -25 -24 -44 -35 -54 -32 -25 10 -19 41 14 72 17 16 30
32 30 37 0 17 -19 6 -50 -28z"/>
<path d="M3186 1764 l-29 -26 46 -46 46 -46 31 29 c36 35 32 46 -6 16 -25 -20
-29 -20 -37 -6 -6 11 -3 22 9 36 9 10 15 21 12 24 -3 3 -11 -1 -18 -10 -7 -8
-18 -15 -26 -15 -23 0 -27 21 -5 36 21 15 28 34 14 34 -5 0 -21 -12 -37 -26z"/>
<path d="M1836 1654 c-20 -26 -33 -51 -30 -56 7 -11 7 -11 52 48 34 44 38 54
22 54 -5 0 -25 -21 -44 -46z"/>
<path d="M3086 1681 c-17 -19 -17 -22 14 -65 17 -25 35 -46 40 -46 14 0 12 14
-2 28 -20 20 5 37 31 22 12 -6 27 -10 34 -7 7 2 2 9 -11 16 -12 6 -22 20 -22
29 0 42 -54 56 -84 23z m58 -10 c3 -4 -3 -16 -13 -25 -17 -16 -19 -16 -25 -1
-3 9 -4 21 0 26 7 11 31 12 38 0z"/>
<path d="M1888 1624 c-34 -55 -34 -59 -3 -80 30 -20 47 -10 19 11 -19 14 -18
15 9 64 36 65 13 69 -25 5z"/>
<path d="M3027 1644 c-3 -4 3 -23 15 -44 24 -40 19 -70 -10 -70 -12 0 -25 14
-37 40 -18 40 -35 53 -35 27 0 -18 57 -97 70 -97 5 0 21 10 36 23 l26 23 -26
52 c-28 54 -29 56 -39 46z"/>
<path d="M1976 1563 c-29 -60 -28 -66 23 -80 30 -7 52 6 69 41 17 35 7 63 -28
81 -16 8 -31 15 -32 15 -2 0 -16 -25 -32 -57z m81 1 c6 -17 -23 -64 -40 -64
-33 1 -38 16 -22 58 15 37 19 40 37 31 10 -6 22 -17 25 -25z"/>
<path d="M2878 1573 c-41 -17 -52 -37 -15 -28 20 5 26 -1 46 -47 12 -29 25
-48 27 -42 3 6 -5 32 -16 58 -20 48 -20 48 0 53 22 6 28 24 8 22 -7 -1 -30 -8
-50 -16z"/>
<path d="M2106 1510 c-19 -52 -20 -60 -9 -61 6 0 43 88 43 104 0 4 -4 7 -8 7
-4 0 -16 -22 -26 -50z"/>
<path d="M2176 1539 c-2 -8 -9 -29 -15 -48 -6 -19 -11 -43 -11 -53 0 -31 19
-10 26 28 8 42 19 30 29 -28 10 -55 31 -47 49 16 19 65 19 69 4 64 -6 -2 -17
-22 -23 -44 l-11 -39 -8 47 c-7 48 -32 83 -40 57z"/>
<path d="M2767 1533 c-12 -18 -19 -133 -9 -133 5 0 12 9 15 20 6 21 51 29 62
10 4 -6 11 -8 16 -4 5 3 -5 25 -23 50 -38 53 -54 68 -61 57z m33 -53 c9 -16 8
-20 -5 -20 -8 0 -15 9 -15 20 0 11 2 20 5 20 2 0 9 -9 15 -20z"/>
<path d="M2647 1513 c-28 -4 -28 -5 -21 -61 3 -31 10 -61 14 -66 11 -11 80 2
80 15 0 6 -14 9 -32 7 -24 -2 -33 1 -36 15 -3 12 3 17 22 17 37 0 41 18 4 22
-41 4 -47 24 -8 31 16 4 30 11 30 17 0 10 -3 10 -53 3z"/>
<path d="M2306 1488 c-36 -51 -10 -103 54 -110 34 -3 35 -2 38 35 3 32 0 37
-17 37 -22 0 -29 -16 -9 -22 17 -6 0 -28 -21 -28 -30 0 -46 27 -35 58 12 33
39 40 65 16 15 -14 19 -14 19 -3 0 42 -69 54 -94 17z"/>
<path d="M2510 1435 c0 -64 16 -91 22 -37 2 21 9 28 31 30 37 4 35 22 -3 22
-20 0 -30 5 -30 15 0 10 10 15 30 15 17 0 30 5 30 10 0 6 -18 10 -40 10 l-40
0 0 -65z"/>
</g>
</svg>
